<mxfile host="app.diagrams.net" agent="Mozilla/5.0 (Windows NT 10.0; Win64; x64) AppleWebKit/537.36 (KHTML, like Gecko) Chrome/131.0.0.0 Safari/537.36" version="25.0.1">
  <diagram name="Page-1" id="1XOqy9QLf4MmbQUMSKVW">
    <mxGraphModel dx="3430" dy="2144" grid="1" gridSize="10" guides="1" tooltips="1" connect="1" arrows="1" fold="1" page="1" pageScale="1" pageWidth="850" pageHeight="1100" math="0" shadow="0">
      <root>
        <mxCell id="0" />
        <mxCell id="1" parent="0" />
        <mxCell id="GJdMn4VS1XzGOR77iFDF-83" style="edgeStyle=orthogonalEdgeStyle;rounded=0;orthogonalLoop=1;jettySize=auto;html=1;exitX=0.5;exitY=1;exitDx=0;exitDy=0;entryX=0.5;entryY=0;entryDx=0;entryDy=0;" parent="1" source="GJdMn4VS1XzGOR77iFDF-4" target="GJdMn4VS1XzGOR77iFDF-60" edge="1">
          <mxGeometry relative="1" as="geometry" />
        </mxCell>
        <mxCell id="GJdMn4VS1XzGOR77iFDF-174" style="edgeStyle=orthogonalEdgeStyle;rounded=0;orthogonalLoop=1;jettySize=auto;html=1;exitX=1;exitY=1;exitDx=0;exitDy=0;entryX=0.5;entryY=0;entryDx=0;entryDy=0;" parent="1" source="GJdMn4VS1XzGOR77iFDF-4" target="GJdMn4VS1XzGOR77iFDF-129" edge="1">
          <mxGeometry relative="1" as="geometry">
            <Array as="points">
              <mxPoint x="550" y="-500" />
              <mxPoint x="1280" y="-500" />
            </Array>
          </mxGeometry>
        </mxCell>
        <mxCell id="GJdMn4VS1XzGOR77iFDF-182" style="edgeStyle=orthogonalEdgeStyle;rounded=0;orthogonalLoop=1;jettySize=auto;html=1;exitX=0.75;exitY=1;exitDx=0;exitDy=0;entryX=0.5;entryY=0;entryDx=0;entryDy=0;" parent="1" source="GJdMn4VS1XzGOR77iFDF-4" target="GJdMn4VS1XzGOR77iFDF-183" edge="1">
          <mxGeometry relative="1" as="geometry">
            <mxPoint x="850" y="900.1817737926136" as="targetPoint" />
            <Array as="points">
              <mxPoint x="525" y="-440" />
              <mxPoint x="1110" y="-440" />
              <mxPoint x="1110" y="225" />
              <mxPoint x="1080" y="225" />
              <mxPoint x="1080" y="890" />
              <mxPoint x="850" y="890" />
            </Array>
          </mxGeometry>
        </mxCell>
        <mxCell id="GJdMn4VS1XzGOR77iFDF-4" value="&lt;b&gt;USER&amp;nbsp;&lt;/b&gt;" style="whiteSpace=wrap;html=1;align=center;fillColor=#3399FF;" parent="1" vertex="1">
          <mxGeometry x="450" y="-530" width="100" height="40" as="geometry" />
        </mxCell>
        <mxCell id="GJdMn4VS1XzGOR77iFDF-232" style="edgeStyle=orthogonalEdgeStyle;rounded=0;orthogonalLoop=1;jettySize=auto;html=1;exitX=0.25;exitY=1;exitDx=0;exitDy=0;entryX=0.5;entryY=0;entryDx=0;entryDy=0;" parent="1" source="GJdMn4VS1XzGOR77iFDF-10" target="GJdMn4VS1XzGOR77iFDF-231" edge="1">
          <mxGeometry relative="1" as="geometry">
            <Array as="points">
              <mxPoint x="190" y="610" />
            </Array>
          </mxGeometry>
        </mxCell>
        <mxCell id="GJdMn4VS1XzGOR77iFDF-112" style="edgeStyle=orthogonalEdgeStyle;rounded=0;orthogonalLoop=1;jettySize=auto;html=1;exitX=0.5;exitY=1;exitDx=0;exitDy=0;entryX=0.5;entryY=0;entryDx=0;entryDy=0;" parent="1" source="GJdMn4VS1XzGOR77iFDF-11" target="GJdMn4VS1XzGOR77iFDF-38" edge="1">
          <mxGeometry relative="1" as="geometry" />
        </mxCell>
        <mxCell id="GJdMn4VS1XzGOR77iFDF-179" style="edgeStyle=orthogonalEdgeStyle;rounded=0;orthogonalLoop=1;jettySize=auto;html=1;exitX=0.75;exitY=0;exitDx=0;exitDy=0;entryX=0.5;entryY=1;entryDx=0;entryDy=0;" parent="1" source="GJdMn4VS1XzGOR77iFDF-11" target="GJdMn4VS1XzGOR77iFDF-178" edge="1">
          <mxGeometry relative="1" as="geometry" />
        </mxCell>
        <mxCell id="GJdMn4VS1XzGOR77iFDF-221" style="edgeStyle=orthogonalEdgeStyle;rounded=0;orthogonalLoop=1;jettySize=auto;html=1;exitX=0;exitY=0.25;exitDx=0;exitDy=0;entryX=1;entryY=0.5;entryDx=0;entryDy=0;" parent="1" source="GJdMn4VS1XzGOR77iFDF-11" target="GJdMn4VS1XzGOR77iFDF-220" edge="1">
          <mxGeometry relative="1" as="geometry" />
        </mxCell>
        <mxCell id="GJdMn4VS1XzGOR77iFDF-227" style="edgeStyle=orthogonalEdgeStyle;rounded=0;orthogonalLoop=1;jettySize=auto;html=1;exitX=1;exitY=0.5;exitDx=0;exitDy=0;entryX=0;entryY=0.5;entryDx=0;entryDy=0;" parent="1" source="GJdMn4VS1XzGOR77iFDF-11" target="GJdMn4VS1XzGOR77iFDF-226" edge="1">
          <mxGeometry relative="1" as="geometry" />
        </mxCell>
        <mxCell id="GJdMn4VS1XzGOR77iFDF-11" value="&lt;b&gt;DEPARTMENT&lt;/b&gt;" style="whiteSpace=wrap;html=1;align=center;fillColor=#3399FF;" parent="1" vertex="1">
          <mxGeometry x="290" y="1050" width="100" height="40" as="geometry" />
        </mxCell>
        <mxCell id="GJdMn4VS1XzGOR77iFDF-38" value="department_id" style="ellipse;whiteSpace=wrap;html=1;align=center;fontStyle=4;" parent="1" vertex="1">
          <mxGeometry x="250" y="1150" width="100" height="40" as="geometry" />
        </mxCell>
        <mxCell id="GJdMn4VS1XzGOR77iFDF-79" style="edgeStyle=orthogonalEdgeStyle;rounded=0;orthogonalLoop=1;jettySize=auto;html=1;exitX=0;exitY=0.25;exitDx=0;exitDy=0;entryX=1;entryY=1;entryDx=0;entryDy=0;" parent="1" source="GJdMn4VS1XzGOR77iFDF-4" target="GJdMn4VS1XzGOR77iFDF-51" edge="1">
          <mxGeometry relative="1" as="geometry" />
        </mxCell>
        <mxCell id="GJdMn4VS1XzGOR77iFDF-51" value="user_id" style="ellipse;whiteSpace=wrap;html=1;align=center;fontStyle=4;" parent="1" vertex="1">
          <mxGeometry x="280" y="-620" width="100" height="40" as="geometry" />
        </mxCell>
        <mxCell id="GJdMn4VS1XzGOR77iFDF-52" value="user_name" style="ellipse;whiteSpace=wrap;html=1;align=center;" parent="1" vertex="1">
          <mxGeometry x="410" y="-640" width="100" height="40" as="geometry" />
        </mxCell>
        <mxCell id="GJdMn4VS1XzGOR77iFDF-81" style="edgeStyle=orthogonalEdgeStyle;rounded=0;orthogonalLoop=1;jettySize=auto;html=1;exitX=0.75;exitY=0;exitDx=0;exitDy=0;entryX=0;entryY=1;entryDx=0;entryDy=0;" parent="1" source="GJdMn4VS1XzGOR77iFDF-4" target="GJdMn4VS1XzGOR77iFDF-53" edge="1">
          <mxGeometry relative="1" as="geometry" />
        </mxCell>
        <mxCell id="GJdMn4VS1XzGOR77iFDF-53" value="email" style="ellipse;whiteSpace=wrap;html=1;align=center;" parent="1" vertex="1">
          <mxGeometry x="530" y="-640" width="100" height="40" as="geometry" />
        </mxCell>
        <mxCell id="GJdMn4VS1XzGOR77iFDF-82" style="edgeStyle=orthogonalEdgeStyle;rounded=0;orthogonalLoop=1;jettySize=auto;html=1;exitX=1;exitY=0.5;exitDx=0;exitDy=0;entryX=0.5;entryY=1;entryDx=0;entryDy=0;" parent="1" source="GJdMn4VS1XzGOR77iFDF-4" target="GJdMn4VS1XzGOR77iFDF-54" edge="1">
          <mxGeometry relative="1" as="geometry" />
        </mxCell>
        <mxCell id="GJdMn4VS1XzGOR77iFDF-54" value="phone_number" style="ellipse;whiteSpace=wrap;html=1;align=center;" parent="1" vertex="1">
          <mxGeometry x="640" y="-620" width="100" height="40" as="geometry" />
        </mxCell>
        <mxCell id="GJdMn4VS1XzGOR77iFDF-55" value="vendorManagementTeam" style="rounded=1;arcSize=26;whiteSpace=wrap;html=1;align=center;fillColor=#99CCFF;" parent="1" vertex="1">
          <mxGeometry x="170" y="-190" width="150" height="50" as="geometry" />
        </mxCell>
        <mxCell id="GJdMn4VS1XzGOR77iFDF-57" value="ProcurementManager" style="rounded=1;arcSize=26;whiteSpace=wrap;html=1;align=center;fillColor=#99CCFF;" parent="1" vertex="1">
          <mxGeometry x="380" y="-190" width="130" height="60" as="geometry" />
        </mxCell>
        <mxCell id="GJdMn4VS1XzGOR77iFDF-159" style="edgeStyle=orthogonalEdgeStyle;rounded=0;orthogonalLoop=1;jettySize=auto;html=1;exitX=0.75;exitY=1;exitDx=0;exitDy=0;entryX=1;entryY=0.5;entryDx=0;entryDy=0;" parent="1" source="GJdMn4VS1XzGOR77iFDF-58" target="GJdMn4VS1XzGOR77iFDF-157" edge="1">
          <mxGeometry relative="1" as="geometry" />
        </mxCell>
        <mxCell id="GJdMn4VS1XzGOR77iFDF-58" value="FinanceTeam" style="rounded=1;arcSize=26;whiteSpace=wrap;html=1;align=center;fillColor=#99CCFF;" parent="1" vertex="1">
          <mxGeometry x="590" y="-190" width="100" height="40" as="geometry" />
        </mxCell>
        <mxCell id="GJdMn4VS1XzGOR77iFDF-152" style="edgeStyle=orthogonalEdgeStyle;rounded=0;orthogonalLoop=1;jettySize=auto;html=1;exitX=1;exitY=0.5;exitDx=0;exitDy=0;entryX=0.5;entryY=0;entryDx=0;entryDy=0;" parent="1" source="GJdMn4VS1XzGOR77iFDF-59" target="GJdMn4VS1XzGOR77iFDF-67" edge="1">
          <mxGeometry relative="1" as="geometry" />
        </mxCell>
        <mxCell id="GJdMn4VS1XzGOR77iFDF-171" style="edgeStyle=orthogonalEdgeStyle;rounded=0;orthogonalLoop=1;jettySize=auto;html=1;exitX=0.25;exitY=1;exitDx=0;exitDy=0;entryX=0.5;entryY=0;entryDx=0;entryDy=0;" parent="1" source="GJdMn4VS1XzGOR77iFDF-59" target="GJdMn4VS1XzGOR77iFDF-166" edge="1">
          <mxGeometry relative="1" as="geometry" />
        </mxCell>
        <mxCell id="GJdMn4VS1XzGOR77iFDF-59" value="ContractManagementTeam" style="rounded=1;arcSize=26;whiteSpace=wrap;html=1;align=center;fillColor=#99CCFF;" parent="1" vertex="1">
          <mxGeometry x="770" y="-200" width="150" height="60" as="geometry" />
        </mxCell>
        <mxCell id="GJdMn4VS1XzGOR77iFDF-84" style="edgeStyle=orthogonalEdgeStyle;rounded=0;orthogonalLoop=1;jettySize=auto;html=1;exitX=0;exitY=1;exitDx=0;exitDy=0;entryX=0.5;entryY=0;entryDx=0;entryDy=0;" parent="1" source="GJdMn4VS1XzGOR77iFDF-60" target="GJdMn4VS1XzGOR77iFDF-55" edge="1">
          <mxGeometry relative="1" as="geometry" />
        </mxCell>
        <mxCell id="GJdMn4VS1XzGOR77iFDF-85" style="edgeStyle=orthogonalEdgeStyle;rounded=0;orthogonalLoop=1;jettySize=auto;html=1;exitX=0.5;exitY=1;exitDx=0;exitDy=0;entryX=0.5;entryY=0;entryDx=0;entryDy=0;" parent="1" source="GJdMn4VS1XzGOR77iFDF-60" target="GJdMn4VS1XzGOR77iFDF-57" edge="1">
          <mxGeometry relative="1" as="geometry" />
        </mxCell>
        <mxCell id="GJdMn4VS1XzGOR77iFDF-86" style="edgeStyle=orthogonalEdgeStyle;rounded=0;orthogonalLoop=1;jettySize=auto;html=1;exitX=1;exitY=1;exitDx=0;exitDy=0;entryX=0.5;entryY=0;entryDx=0;entryDy=0;" parent="1" source="GJdMn4VS1XzGOR77iFDF-60" target="GJdMn4VS1XzGOR77iFDF-58" edge="1">
          <mxGeometry relative="1" as="geometry" />
        </mxCell>
        <mxCell id="GJdMn4VS1XzGOR77iFDF-87" style="edgeStyle=orthogonalEdgeStyle;rounded=0;orthogonalLoop=1;jettySize=auto;html=1;exitX=1;exitY=0.5;exitDx=0;exitDy=0;entryX=0.5;entryY=0;entryDx=0;entryDy=0;" parent="1" source="GJdMn4VS1XzGOR77iFDF-60" target="GJdMn4VS1XzGOR77iFDF-59" edge="1">
          <mxGeometry relative="1" as="geometry" />
        </mxCell>
        <mxCell id="GJdMn4VS1XzGOR77iFDF-60" value="d" style="ellipse;whiteSpace=wrap;html=1;aspect=fixed;fillColor=#67AB9F;" parent="1" vertex="1">
          <mxGeometry x="480" y="-430" width="40" height="40" as="geometry" />
        </mxCell>
        <mxCell id="GJdMn4VS1XzGOR77iFDF-61" value="team_name" style="ellipse;whiteSpace=wrap;html=1;align=center;" parent="1" vertex="1">
          <mxGeometry x="100" y="-50" width="100" height="40" as="geometry" />
        </mxCell>
        <mxCell id="GJdMn4VS1XzGOR77iFDF-89" style="edgeStyle=orthogonalEdgeStyle;rounded=0;orthogonalLoop=1;jettySize=auto;html=1;exitX=0;exitY=0.5;exitDx=0;exitDy=0;entryX=0.5;entryY=0;entryDx=0;entryDy=0;" parent="1" source="GJdMn4VS1XzGOR77iFDF-55" target="GJdMn4VS1XzGOR77iFDF-62" edge="1">
          <mxGeometry relative="1" as="geometry" />
        </mxCell>
        <mxCell id="GJdMn4VS1XzGOR77iFDF-62" value="team_ID" style="ellipse;whiteSpace=wrap;html=1;align=center;" parent="1" vertex="1">
          <mxGeometry x="50" y="-140" width="100" height="40" as="geometry" />
        </mxCell>
        <mxCell id="GJdMn4VS1XzGOR77iFDF-63" value="manager_id" style="ellipse;whiteSpace=wrap;html=1;align=center;" parent="1" vertex="1">
          <mxGeometry x="300" y="-110" width="100" height="40" as="geometry" />
        </mxCell>
        <mxCell id="GJdMn4VS1XzGOR77iFDF-64" value="department" style="ellipse;whiteSpace=wrap;html=1;align=center;" parent="1" vertex="1">
          <mxGeometry x="310" y="-250" width="100" height="40" as="geometry" />
        </mxCell>
        <mxCell id="GJdMn4VS1XzGOR77iFDF-94" style="edgeStyle=orthogonalEdgeStyle;rounded=0;orthogonalLoop=1;jettySize=auto;html=1;exitX=0.25;exitY=1;exitDx=0;exitDy=0;entryX=1;entryY=0;entryDx=0;entryDy=0;" parent="1" source="GJdMn4VS1XzGOR77iFDF-58" target="GJdMn4VS1XzGOR77iFDF-65" edge="1">
          <mxGeometry relative="1" as="geometry">
            <Array as="points">
              <mxPoint x="615" y="-130" />
              <mxPoint x="540" y="-130" />
              <mxPoint x="540" y="-114" />
            </Array>
          </mxGeometry>
        </mxCell>
        <mxCell id="GJdMn4VS1XzGOR77iFDF-65" value="finance_id" style="ellipse;whiteSpace=wrap;html=1;align=center;" parent="1" vertex="1">
          <mxGeometry x="490" y="-120" width="100" height="40" as="geometry" />
        </mxCell>
        <mxCell id="GJdMn4VS1XzGOR77iFDF-95" style="edgeStyle=orthogonalEdgeStyle;rounded=0;orthogonalLoop=1;jettySize=auto;html=1;entryX=0;entryY=0;entryDx=0;entryDy=0;" parent="1" source="GJdMn4VS1XzGOR77iFDF-58" target="GJdMn4VS1XzGOR77iFDF-66" edge="1">
          <mxGeometry relative="1" as="geometry">
            <Array as="points">
              <mxPoint x="640" y="-50" />
              <mxPoint x="580" y="-50" />
              <mxPoint x="580" y="5" />
            </Array>
          </mxGeometry>
        </mxCell>
        <mxCell id="GJdMn4VS1XzGOR77iFDF-66" value="budget_assigned" style="ellipse;whiteSpace=wrap;html=1;align=center;" parent="1" vertex="1">
          <mxGeometry x="525" y="-2" width="110" height="50" as="geometry" />
        </mxCell>
        <mxCell id="GJdMn4VS1XzGOR77iFDF-67" value="assigned_contracts" style="ellipse;whiteSpace=wrap;html=1;align=center;" parent="1" vertex="1">
          <mxGeometry x="970" y="-110" width="120" height="50" as="geometry" />
        </mxCell>
        <mxCell id="GJdMn4VS1XzGOR77iFDF-68" value="team_id" style="ellipse;whiteSpace=wrap;html=1;align=center;" parent="1" vertex="1">
          <mxGeometry x="850" y="-50" width="100" height="40" as="geometry" />
        </mxCell>
        <mxCell id="GJdMn4VS1XzGOR77iFDF-80" style="edgeStyle=orthogonalEdgeStyle;rounded=0;orthogonalLoop=1;jettySize=auto;html=1;exitX=0.101;exitY=-0.052;exitDx=0;exitDy=0;entryX=0.5;entryY=1;entryDx=0;entryDy=0;exitPerimeter=0;" parent="1" source="GJdMn4VS1XzGOR77iFDF-4" target="GJdMn4VS1XzGOR77iFDF-52" edge="1">
          <mxGeometry relative="1" as="geometry" />
        </mxCell>
        <mxCell id="GJdMn4VS1XzGOR77iFDF-91" style="edgeStyle=orthogonalEdgeStyle;rounded=0;orthogonalLoop=1;jettySize=auto;html=1;exitX=0.329;exitY=1.071;exitDx=0;exitDy=0;entryX=0.5;entryY=0;entryDx=0;entryDy=0;exitPerimeter=0;" parent="1" source="GJdMn4VS1XzGOR77iFDF-55" target="GJdMn4VS1XzGOR77iFDF-61" edge="1">
          <mxGeometry relative="1" as="geometry" />
        </mxCell>
        <mxCell id="GJdMn4VS1XzGOR77iFDF-92" style="edgeStyle=orthogonalEdgeStyle;rounded=0;orthogonalLoop=1;jettySize=auto;html=1;exitX=0.312;exitY=1.005;exitDx=0;exitDy=0;entryX=1;entryY=0;entryDx=0;entryDy=0;exitPerimeter=0;" parent="1" source="GJdMn4VS1XzGOR77iFDF-57" target="GJdMn4VS1XzGOR77iFDF-63" edge="1">
          <mxGeometry relative="1" as="geometry" />
        </mxCell>
        <mxCell id="GJdMn4VS1XzGOR77iFDF-175" style="edgeStyle=orthogonalEdgeStyle;rounded=0;orthogonalLoop=1;jettySize=auto;html=1;exitX=0.5;exitY=1;exitDx=0;exitDy=0;entryX=0;entryY=0.5;entryDx=0;entryDy=0;" parent="1" source="GJdMn4VS1XzGOR77iFDF-129" target="GJdMn4VS1XzGOR77iFDF-5" edge="1">
          <mxGeometry relative="1" as="geometry" />
        </mxCell>
        <mxCell id="GJdMn4VS1XzGOR77iFDF-129" value="oversees" style="shape=rhombus;perimeter=rhombusPerimeter;whiteSpace=wrap;html=1;align=center;fillColor=#C3ABD0;" parent="1" vertex="1">
          <mxGeometry x="1220" y="-300" width="120" height="60" as="geometry" />
        </mxCell>
        <mxCell id="GJdMn4VS1XzGOR77iFDF-133" value="M" style="text;html=1;align=center;verticalAlign=middle;resizable=0;points=[];autosize=1;strokeColor=none;fillColor=none;" parent="1" vertex="1">
          <mxGeometry x="1300" y="30" width="30" height="30" as="geometry" />
        </mxCell>
        <mxCell id="GJdMn4VS1XzGOR77iFDF-139" value="" style="shape=requiredInterface;html=1;verticalLabelPosition=bottom;sketch=0;direction=west;" parent="1" vertex="1">
          <mxGeometry x="420" y="-420" width="20" height="40" as="geometry" />
        </mxCell>
        <mxCell id="GJdMn4VS1XzGOR77iFDF-142" value="" style="shape=requiredInterface;html=1;verticalLabelPosition=bottom;sketch=0;direction=south;" parent="1" vertex="1">
          <mxGeometry x="480" y="-340" width="40" height="20" as="geometry" />
        </mxCell>
        <mxCell id="GJdMn4VS1XzGOR77iFDF-143" value="" style="shape=requiredInterface;html=1;verticalLabelPosition=bottom;sketch=0;direction=east;" parent="1" vertex="1">
          <mxGeometry x="680" y="-430" width="20" height="40" as="geometry" />
        </mxCell>
        <mxCell id="GJdMn4VS1XzGOR77iFDF-144" value="" style="shape=requiredInterface;html=1;verticalLabelPosition=bottom;sketch=0;direction=south;" parent="1" vertex="1">
          <mxGeometry x="620" y="-340" width="40" height="20" as="geometry" />
        </mxCell>
        <mxCell id="GJdMn4VS1XzGOR77iFDF-146" style="edgeStyle=orthogonalEdgeStyle;rounded=0;orthogonalLoop=1;jettySize=auto;html=1;exitX=0;exitY=0;exitDx=0;exitDy=0;entryX=0.65;entryY=0.875;entryDx=0;entryDy=0;entryPerimeter=0;" parent="1" source="GJdMn4VS1XzGOR77iFDF-57" target="GJdMn4VS1XzGOR77iFDF-64" edge="1">
          <mxGeometry relative="1" as="geometry" />
        </mxCell>
        <mxCell id="GJdMn4VS1XzGOR77iFDF-150" value="1" style="text;html=1;align=center;verticalAlign=middle;resizable=0;points=[];autosize=1;strokeColor=none;fillColor=none;" parent="1" vertex="1">
          <mxGeometry x="550" y="-500" width="30" height="30" as="geometry" />
        </mxCell>
        <mxCell id="GJdMn4VS1XzGOR77iFDF-154" style="edgeStyle=orthogonalEdgeStyle;rounded=0;orthogonalLoop=1;jettySize=auto;html=1;exitX=0.75;exitY=1;exitDx=0;exitDy=0;entryX=0.605;entryY=0.039;entryDx=0;entryDy=0;entryPerimeter=0;" parent="1" source="GJdMn4VS1XzGOR77iFDF-59" target="GJdMn4VS1XzGOR77iFDF-68" edge="1">
          <mxGeometry relative="1" as="geometry" />
        </mxCell>
        <mxCell id="GJdMn4VS1XzGOR77iFDF-160" style="edgeStyle=orthogonalEdgeStyle;rounded=0;orthogonalLoop=1;jettySize=auto;html=1;exitX=0;exitY=0.5;exitDx=0;exitDy=0;entryX=0.75;entryY=1;entryDx=0;entryDy=0;" parent="1" source="GJdMn4VS1XzGOR77iFDF-157" target="GJdMn4VS1XzGOR77iFDF-10" edge="1">
          <mxGeometry relative="1" as="geometry">
            <Array as="points">
              <mxPoint x="490" y="460" />
              <mxPoint x="250" y="460" />
              <mxPoint x="250" y="350" />
            </Array>
          </mxGeometry>
        </mxCell>
        <mxCell id="GJdMn4VS1XzGOR77iFDF-157" value="manages" style="shape=rhombus;perimeter=rhombusPerimeter;whiteSpace=wrap;html=1;align=center;fillColor=#C3ABD0;" parent="1" vertex="1">
          <mxGeometry x="470" y="230" width="120" height="60" as="geometry" />
        </mxCell>
        <mxCell id="GJdMn4VS1XzGOR77iFDF-172" style="edgeStyle=orthogonalEdgeStyle;rounded=0;orthogonalLoop=1;jettySize=auto;html=1;exitX=0.5;exitY=1;exitDx=0;exitDy=0;entryX=1;entryY=0.5;entryDx=0;entryDy=0;" parent="1" source="GJdMn4VS1XzGOR77iFDF-166" target="GJdMn4VS1XzGOR77iFDF-8" edge="1">
          <mxGeometry relative="1" as="geometry">
            <Array as="points">
              <mxPoint x="800" y="280" />
              <mxPoint x="1050" y="280" />
              <mxPoint x="1050" y="480" />
            </Array>
          </mxGeometry>
        </mxCell>
        <mxCell id="GJdMn4VS1XzGOR77iFDF-166" value="recieves" style="shape=rhombus;perimeter=rhombusPerimeter;whiteSpace=wrap;html=1;align=center;fillColor=#C3ABD0;" parent="1" vertex="1">
          <mxGeometry x="710" y="110" width="120" height="60" as="geometry" />
        </mxCell>
        <mxCell id="GJdMn4VS1XzGOR77iFDF-107" style="edgeStyle=orthogonalEdgeStyle;rounded=0;orthogonalLoop=1;jettySize=auto;html=1;exitX=0.25;exitY=0;exitDx=0;exitDy=0;entryX=1;entryY=1;entryDx=0;entryDy=0;" parent="1" source="GJdMn4VS1XzGOR77iFDF-8" target="GJdMn4VS1XzGOR77iFDF-47" edge="1">
          <mxGeometry relative="1" as="geometry" />
        </mxCell>
        <mxCell id="GJdMn4VS1XzGOR77iFDF-108" style="edgeStyle=orthogonalEdgeStyle;rounded=0;orthogonalLoop=1;jettySize=auto;html=1;exitX=0;exitY=0;exitDx=0;exitDy=0;entryX=1;entryY=0.5;entryDx=0;entryDy=0;" parent="1" source="GJdMn4VS1XzGOR77iFDF-8" target="GJdMn4VS1XzGOR77iFDF-48" edge="1">
          <mxGeometry relative="1" as="geometry" />
        </mxCell>
        <mxCell id="GJdMn4VS1XzGOR77iFDF-110" style="edgeStyle=orthogonalEdgeStyle;rounded=0;orthogonalLoop=1;jettySize=auto;html=1;exitX=0;exitY=1;exitDx=0;exitDy=0;" parent="1" source="GJdMn4VS1XzGOR77iFDF-8" target="GJdMn4VS1XzGOR77iFDF-50" edge="1">
          <mxGeometry relative="1" as="geometry" />
        </mxCell>
        <mxCell id="GJdMn4VS1XzGOR77iFDF-111" style="edgeStyle=orthogonalEdgeStyle;rounded=0;orthogonalLoop=1;jettySize=auto;html=1;exitX=0.25;exitY=1;exitDx=0;exitDy=0;entryX=1;entryY=0.5;entryDx=0;entryDy=0;" parent="1" source="GJdMn4VS1XzGOR77iFDF-8" target="GJdMn4VS1XzGOR77iFDF-50" edge="1">
          <mxGeometry relative="1" as="geometry" />
        </mxCell>
        <mxCell id="GJdMn4VS1XzGOR77iFDF-8" value="&lt;b&gt;NOTIFICATIONS&lt;/b&gt;" style="whiteSpace=wrap;html=1;align=center;fillColor=#3399FF;" parent="1" vertex="1">
          <mxGeometry x="920" y="460" width="110" height="40" as="geometry" />
        </mxCell>
        <mxCell id="GJdMn4VS1XzGOR77iFDF-47" value="notification_ID" style="ellipse;whiteSpace=wrap;html=1;align=center;fontStyle=4;" parent="1" vertex="1">
          <mxGeometry x="895" y="320" width="100" height="40" as="geometry" />
        </mxCell>
        <mxCell id="GJdMn4VS1XzGOR77iFDF-48" value="notification_type" style="ellipse;whiteSpace=wrap;html=1;align=center;" parent="1" vertex="1">
          <mxGeometry x="730" y="390" width="100" height="40" as="geometry" />
        </mxCell>
        <mxCell id="GJdMn4VS1XzGOR77iFDF-49" value="date" style="ellipse;whiteSpace=wrap;html=1;align=center;" parent="1" vertex="1">
          <mxGeometry x="745" y="440" width="100" height="40" as="geometry" />
        </mxCell>
        <mxCell id="GJdMn4VS1XzGOR77iFDF-50" value="status" style="ellipse;whiteSpace=wrap;html=1;align=center;" parent="1" vertex="1">
          <mxGeometry x="770" y="510" width="100" height="40" as="geometry" />
        </mxCell>
        <mxCell id="GJdMn4VS1XzGOR77iFDF-109" style="edgeStyle=orthogonalEdgeStyle;rounded=0;orthogonalLoop=1;jettySize=auto;html=1;exitX=0;exitY=0.5;exitDx=0;exitDy=0;entryX=0.948;entryY=0.205;entryDx=0;entryDy=0;entryPerimeter=0;" parent="1" source="GJdMn4VS1XzGOR77iFDF-8" target="GJdMn4VS1XzGOR77iFDF-49" edge="1">
          <mxGeometry relative="1" as="geometry" />
        </mxCell>
        <mxCell id="GJdMn4VS1XzGOR77iFDF-101" style="edgeStyle=orthogonalEdgeStyle;rounded=0;orthogonalLoop=1;jettySize=auto;html=1;exitX=0.75;exitY=0;exitDx=0;exitDy=0;entryX=0.5;entryY=1;entryDx=0;entryDy=0;" parent="1" source="GJdMn4VS1XzGOR77iFDF-5" target="GJdMn4VS1XzGOR77iFDF-18" edge="1">
          <mxGeometry relative="1" as="geometry">
            <Array as="points">
              <mxPoint x="1415" />
              <mxPoint x="1420" />
            </Array>
          </mxGeometry>
        </mxCell>
        <mxCell id="GJdMn4VS1XzGOR77iFDF-102" style="edgeStyle=orthogonalEdgeStyle;rounded=0;orthogonalLoop=1;jettySize=auto;html=1;exitX=1;exitY=0;exitDx=0;exitDy=0;entryX=0;entryY=1;entryDx=0;entryDy=0;" parent="1" source="GJdMn4VS1XzGOR77iFDF-5" target="GJdMn4VS1XzGOR77iFDF-17" edge="1">
          <mxGeometry relative="1" as="geometry">
            <Array as="points">
              <mxPoint x="1440" y="-20" />
              <mxPoint x="1535" y="-20" />
            </Array>
          </mxGeometry>
        </mxCell>
        <mxCell id="GJdMn4VS1XzGOR77iFDF-103" style="edgeStyle=orthogonalEdgeStyle;rounded=0;orthogonalLoop=1;jettySize=auto;html=1;exitX=1;exitY=0.25;exitDx=0;exitDy=0;entryX=0;entryY=0.5;entryDx=0;entryDy=0;" parent="1" source="GJdMn4VS1XzGOR77iFDF-5" target="GJdMn4VS1XzGOR77iFDF-16" edge="1">
          <mxGeometry relative="1" as="geometry" />
        </mxCell>
        <mxCell id="GJdMn4VS1XzGOR77iFDF-104" style="edgeStyle=orthogonalEdgeStyle;rounded=0;orthogonalLoop=1;jettySize=auto;html=1;exitX=1;exitY=0.5;exitDx=0;exitDy=0;entryX=0;entryY=0.5;entryDx=0;entryDy=0;" parent="1" source="GJdMn4VS1XzGOR77iFDF-5" target="GJdMn4VS1XzGOR77iFDF-15" edge="1">
          <mxGeometry relative="1" as="geometry" />
        </mxCell>
        <mxCell id="GJdMn4VS1XzGOR77iFDF-105" style="edgeStyle=orthogonalEdgeStyle;rounded=0;orthogonalLoop=1;jettySize=auto;html=1;exitX=1;exitY=0.75;exitDx=0;exitDy=0;entryX=0;entryY=0.5;entryDx=0;entryDy=0;" parent="1" source="GJdMn4VS1XzGOR77iFDF-5" target="GJdMn4VS1XzGOR77iFDF-14" edge="1">
          <mxGeometry relative="1" as="geometry" />
        </mxCell>
        <mxCell id="GJdMn4VS1XzGOR77iFDF-106" style="edgeStyle=orthogonalEdgeStyle;rounded=0;orthogonalLoop=1;jettySize=auto;html=1;exitX=1;exitY=1;exitDx=0;exitDy=0;entryX=0;entryY=0.5;entryDx=0;entryDy=0;" parent="1" source="GJdMn4VS1XzGOR77iFDF-5" target="GJdMn4VS1XzGOR77iFDF-13" edge="1">
          <mxGeometry relative="1" as="geometry" />
        </mxCell>
        <mxCell id="GJdMn4VS1XzGOR77iFDF-215" style="edgeStyle=orthogonalEdgeStyle;rounded=0;orthogonalLoop=1;jettySize=auto;html=1;exitX=0;exitY=0.75;exitDx=0;exitDy=0;entryX=1;entryY=0.5;entryDx=0;entryDy=0;" parent="1" source="GJdMn4VS1XzGOR77iFDF-5" target="GJdMn4VS1XzGOR77iFDF-214" edge="1">
          <mxGeometry relative="1" as="geometry" />
        </mxCell>
        <mxCell id="GJdMn4VS1XzGOR77iFDF-13" value="contract_id" style="ellipse;whiteSpace=wrap;html=1;align=center;fontStyle=4;" parent="1" vertex="1">
          <mxGeometry x="1510" y="160" width="100" height="40" as="geometry" />
        </mxCell>
        <mxCell id="GJdMn4VS1XzGOR77iFDF-14" value="approval_status" style="ellipse;whiteSpace=wrap;html=1;align=center;" parent="1" vertex="1">
          <mxGeometry x="1630" y="110" width="100" height="40" as="geometry" />
        </mxCell>
        <mxCell id="GJdMn4VS1XzGOR77iFDF-15" value="contract_status" style="ellipse;whiteSpace=wrap;html=1;align=center;" parent="1" vertex="1">
          <mxGeometry x="1630" y="40" width="100" height="40" as="geometry" />
        </mxCell>
        <mxCell id="GJdMn4VS1XzGOR77iFDF-16" value="renewal_date" style="ellipse;whiteSpace=wrap;html=1;align=center;" parent="1" vertex="1">
          <mxGeometry x="1630" y="-30" width="100" height="40" as="geometry" />
        </mxCell>
        <mxCell id="GJdMn4VS1XzGOR77iFDF-17" value="end_date" style="ellipse;whiteSpace=wrap;html=1;align=center;" parent="1" vertex="1">
          <mxGeometry x="1520" y="-90" width="100" height="40" as="geometry" />
        </mxCell>
        <mxCell id="GJdMn4VS1XzGOR77iFDF-18" value="start_date" style="ellipse;whiteSpace=wrap;html=1;align=center;" parent="1" vertex="1">
          <mxGeometry x="1370" y="-90" width="100" height="40" as="geometry" />
        </mxCell>
        <mxCell id="GJdMn4VS1XzGOR77iFDF-176" value="1" style="text;html=1;align=center;verticalAlign=middle;resizable=0;points=[];autosize=1;strokeColor=none;fillColor=none;" parent="1" vertex="1">
          <mxGeometry x="765" y="-122" width="30" height="30" as="geometry" />
        </mxCell>
        <mxCell id="GJdMn4VS1XzGOR77iFDF-177" value="M" style="text;html=1;align=center;verticalAlign=middle;resizable=0;points=[];autosize=1;strokeColor=none;fillColor=none;" parent="1" vertex="1">
          <mxGeometry x="1010" y="430" width="30" height="30" as="geometry" />
        </mxCell>
        <mxCell id="GJdMn4VS1XzGOR77iFDF-180" style="edgeStyle=orthogonalEdgeStyle;rounded=0;orthogonalLoop=1;jettySize=auto;html=1;exitX=0.5;exitY=0;exitDx=0;exitDy=0;entryX=0;entryY=0.5;entryDx=0;entryDy=0;" parent="1" source="GJdMn4VS1XzGOR77iFDF-178" target="GJdMn4VS1XzGOR77iFDF-4" edge="1">
          <mxGeometry relative="1" as="geometry">
            <Array as="points">
              <mxPoint x="330" y="770" />
              <mxPoint x="-90" y="770" />
              <mxPoint x="-90" y="-510" />
            </Array>
          </mxGeometry>
        </mxCell>
        <mxCell id="GJdMn4VS1XzGOR77iFDF-178" value="have" style="shape=rhombus;perimeter=rhombusPerimeter;whiteSpace=wrap;html=1;align=center;fillColor=#C3ABD0;" parent="1" vertex="1">
          <mxGeometry x="270" y="800" width="120" height="60" as="geometry" />
        </mxCell>
        <mxCell id="GJdMn4VS1XzGOR77iFDF-181" value="M" style="text;html=1;align=center;verticalAlign=middle;resizable=0;points=[];autosize=1;strokeColor=none;fillColor=none;" parent="1" vertex="1">
          <mxGeometry x="405" y="-512" width="30" height="30" as="geometry" />
        </mxCell>
        <mxCell id="GJdMn4VS1XzGOR77iFDF-184" style="edgeStyle=orthogonalEdgeStyle;rounded=0;orthogonalLoop=1;jettySize=auto;html=1;exitX=0.5;exitY=1;exitDx=0;exitDy=0;entryX=0.5;entryY=0;entryDx=0;entryDy=0;" parent="1" source="GJdMn4VS1XzGOR77iFDF-183" target="GJdMn4VS1XzGOR77iFDF-9" edge="1">
          <mxGeometry relative="1" as="geometry" />
        </mxCell>
        <mxCell id="GJdMn4VS1XzGOR77iFDF-183" value="evaluates" style="shape=rhombus;perimeter=rhombusPerimeter;whiteSpace=wrap;html=1;align=center;fillColor=#C3ABD0;" parent="1" vertex="1">
          <mxGeometry x="790" y="940" width="120" height="60" as="geometry" />
        </mxCell>
        <mxCell id="GJdMn4VS1XzGOR77iFDF-186" value="M" style="text;html=1;align=center;verticalAlign=middle;resizable=0;points=[];autosize=1;strokeColor=none;fillColor=none;" parent="1" vertex="1">
          <mxGeometry x="525" y="-482" width="30" height="30" as="geometry" />
        </mxCell>
        <mxCell id="GJdMn4VS1XzGOR77iFDF-197" style="edgeStyle=orthogonalEdgeStyle;rounded=0;orthogonalLoop=1;jettySize=auto;html=1;exitX=0;exitY=0.25;exitDx=0;exitDy=0;entryX=1;entryY=0.5;entryDx=0;entryDy=0;" parent="1" source="GJdMn4VS1XzGOR77iFDF-6" target="GJdMn4VS1XzGOR77iFDF-196" edge="1">
          <mxGeometry relative="1" as="geometry" />
        </mxCell>
        <mxCell id="GJdMn4VS1XzGOR77iFDF-209" style="edgeStyle=orthogonalEdgeStyle;rounded=0;orthogonalLoop=1;jettySize=auto;html=1;exitX=0;exitY=0.25;exitDx=0;exitDy=0;entryX=1;entryY=0.5;entryDx=0;entryDy=0;" parent="1" source="GJdMn4VS1XzGOR77iFDF-6" target="GJdMn4VS1XzGOR77iFDF-202" edge="1">
          <mxGeometry relative="1" as="geometry" />
        </mxCell>
        <mxCell id="GJdMn4VS1XzGOR77iFDF-210" style="edgeStyle=orthogonalEdgeStyle;rounded=0;orthogonalLoop=1;jettySize=auto;html=1;exitX=0;exitY=0.25;exitDx=0;exitDy=0;" parent="1" source="GJdMn4VS1XzGOR77iFDF-6" target="GJdMn4VS1XzGOR77iFDF-211" edge="1">
          <mxGeometry relative="1" as="geometry">
            <mxPoint x="1740" y="680" as="targetPoint" />
            <Array as="points">
              <mxPoint x="1730" y="450" />
              <mxPoint x="1730" y="730" />
            </Array>
          </mxGeometry>
        </mxCell>
        <mxCell id="GJdMn4VS1XzGOR77iFDF-6" value="&lt;b&gt;VENDOR&lt;/b&gt;" style="whiteSpace=wrap;html=1;align=center;fillColor=#3399FF;" parent="1" vertex="1">
          <mxGeometry x="2030" y="440" width="100" height="40" as="geometry" />
        </mxCell>
        <mxCell id="GJdMn4VS1XzGOR77iFDF-188" style="edgeStyle=orthogonalEdgeStyle;rounded=0;orthogonalLoop=1;jettySize=auto;html=1;exitX=0.5;exitY=0;exitDx=0;exitDy=0;entryX=0;entryY=1;entryDx=0;entryDy=0;" parent="1" source="GJdMn4VS1XzGOR77iFDF-23" target="GJdMn4VS1XzGOR77iFDF-6" edge="1">
          <mxGeometry relative="1" as="geometry" />
        </mxCell>
        <mxCell id="GJdMn4VS1XzGOR77iFDF-23" value="vendor_id" style="ellipse;whiteSpace=wrap;html=1;align=center;fontStyle=4;" parent="1" vertex="1">
          <mxGeometry x="1960" y="550" width="100" height="40" as="geometry" />
        </mxCell>
        <mxCell id="GJdMn4VS1XzGOR77iFDF-192" style="edgeStyle=orthogonalEdgeStyle;rounded=0;orthogonalLoop=1;jettySize=auto;html=1;exitX=0;exitY=0.5;exitDx=0;exitDy=0;entryX=1;entryY=0.75;entryDx=0;entryDy=0;" parent="1" source="GJdMn4VS1XzGOR77iFDF-24" target="GJdMn4VS1XzGOR77iFDF-6" edge="1">
          <mxGeometry relative="1" as="geometry" />
        </mxCell>
        <mxCell id="GJdMn4VS1XzGOR77iFDF-24" value="contact_number" style="ellipse;whiteSpace=wrap;html=1;align=center;" parent="1" vertex="1">
          <mxGeometry x="2210" y="413" width="100" height="40" as="geometry" />
        </mxCell>
        <mxCell id="GJdMn4VS1XzGOR77iFDF-194" style="edgeStyle=orthogonalEdgeStyle;rounded=0;orthogonalLoop=1;jettySize=auto;html=1;exitX=0;exitY=0.5;exitDx=0;exitDy=0;entryX=1;entryY=0;entryDx=0;entryDy=0;" parent="1" source="GJdMn4VS1XzGOR77iFDF-25" target="GJdMn4VS1XzGOR77iFDF-6" edge="1">
          <mxGeometry relative="1" as="geometry">
            <Array as="points">
              <mxPoint x="2170" y="330" />
              <mxPoint x="2130" y="330" />
            </Array>
          </mxGeometry>
        </mxCell>
        <mxCell id="GJdMn4VS1XzGOR77iFDF-25" value="address&lt;span style=&quot;color: rgba(0, 0, 0, 0); font-family: monospace; font-size: 0px; text-align: start; text-wrap-mode: nowrap;&quot;&gt;%3CmxGraphModel%3E%3Croot%3E%3CmxCell%20id%3D%220%22%2F%3E%3CmxCell%20id%3D%221%22%20parent%3D%220%22%2F%3E%3CmxCell%20id%3D%222%22%20value%3D%22name%22%20style%3D%22ellipse%3BwhiteSpace%3Dwrap%3Bhtml%3D1%3Balign%3Dcenter%3B%22%20vertex%3D%221%22%20parent%3D%221%22%3E%3CmxGeometry%20x%3D%22-640%22%20y%3D%22-510%22%20width%3D%22100%22%20height%3D%2240%22%20as%3D%22geometry%22%2F%3E%3C%2FmxCell%3E%3C%2Froot%3E%3C%2FmxGraphModel%3E&lt;/span&gt;" style="ellipse;whiteSpace=wrap;html=1;align=center;" parent="1" vertex="1">
          <mxGeometry x="2170" y="280" width="100" height="40" as="geometry" />
        </mxCell>
        <mxCell id="GJdMn4VS1XzGOR77iFDF-191" style="edgeStyle=orthogonalEdgeStyle;rounded=0;orthogonalLoop=1;jettySize=auto;html=1;exitX=0;exitY=0.5;exitDx=0;exitDy=0;entryX=0.75;entryY=1;entryDx=0;entryDy=0;" parent="1" source="GJdMn4VS1XzGOR77iFDF-26" target="GJdMn4VS1XzGOR77iFDF-6" edge="1">
          <mxGeometry relative="1" as="geometry" />
        </mxCell>
        <mxCell id="GJdMn4VS1XzGOR77iFDF-26" value="contact_person" style="ellipse;whiteSpace=wrap;html=1;align=center;" parent="1" vertex="1">
          <mxGeometry x="2210" y="480" width="100" height="40" as="geometry" />
        </mxCell>
        <mxCell id="GJdMn4VS1XzGOR77iFDF-193" style="edgeStyle=orthogonalEdgeStyle;rounded=0;orthogonalLoop=1;jettySize=auto;html=1;exitX=0;exitY=0.5;exitDx=0;exitDy=0;entryX=1;entryY=0.25;entryDx=0;entryDy=0;" parent="1" source="GJdMn4VS1XzGOR77iFDF-27" target="GJdMn4VS1XzGOR77iFDF-6" edge="1">
          <mxGeometry relative="1" as="geometry" />
        </mxCell>
        <mxCell id="GJdMn4VS1XzGOR77iFDF-27" value="email" style="ellipse;whiteSpace=wrap;html=1;align=center;" parent="1" vertex="1">
          <mxGeometry x="2210" y="340" width="100" height="40" as="geometry" />
        </mxCell>
        <mxCell id="GJdMn4VS1XzGOR77iFDF-190" style="edgeStyle=orthogonalEdgeStyle;rounded=0;orthogonalLoop=1;jettySize=auto;html=1;exitX=0;exitY=0;exitDx=0;exitDy=0;entryX=0.5;entryY=1;entryDx=0;entryDy=0;" parent="1" source="GJdMn4VS1XzGOR77iFDF-28" target="GJdMn4VS1XzGOR77iFDF-6" edge="1">
          <mxGeometry relative="1" as="geometry">
            <Array as="points">
              <mxPoint x="2170" y="566" />
              <mxPoint x="2170" y="540" />
              <mxPoint x="2080" y="540" />
            </Array>
          </mxGeometry>
        </mxCell>
        <mxCell id="GJdMn4VS1XzGOR77iFDF-28" value="name" style="ellipse;whiteSpace=wrap;html=1;align=center;" parent="1" vertex="1">
          <mxGeometry x="2210" y="560" width="100" height="40" as="geometry" />
        </mxCell>
        <mxCell id="GJdMn4VS1XzGOR77iFDF-29" value="rating" style="ellipse;whiteSpace=wrap;html=1;align=center;" parent="1" vertex="1">
          <mxGeometry x="2080" y="560" width="100" height="40" as="geometry" />
        </mxCell>
        <mxCell id="GJdMn4VS1XzGOR77iFDF-195" style="edgeStyle=orthogonalEdgeStyle;rounded=0;orthogonalLoop=1;jettySize=auto;html=1;exitX=0.5;exitY=1;exitDx=0;exitDy=0;entryX=0.5;entryY=0;entryDx=0;entryDy=0;" parent="1" source="GJdMn4VS1XzGOR77iFDF-30" target="GJdMn4VS1XzGOR77iFDF-6" edge="1">
          <mxGeometry relative="1" as="geometry" />
        </mxCell>
        <mxCell id="GJdMn4VS1XzGOR77iFDF-30" value="compliance_status" style="ellipse;whiteSpace=wrap;html=1;align=center;" parent="1" vertex="1">
          <mxGeometry x="2000" y="290" width="120" height="40" as="geometry" />
        </mxCell>
        <mxCell id="GJdMn4VS1XzGOR77iFDF-189" style="edgeStyle=orthogonalEdgeStyle;rounded=0;orthogonalLoop=1;jettySize=auto;html=1;exitX=0;exitY=0;exitDx=0;exitDy=0;entryX=0.133;entryY=1.007;entryDx=0;entryDy=0;entryPerimeter=0;" parent="1" source="GJdMn4VS1XzGOR77iFDF-29" target="GJdMn4VS1XzGOR77iFDF-6" edge="1">
          <mxGeometry relative="1" as="geometry" />
        </mxCell>
        <mxCell id="GJdMn4VS1XzGOR77iFDF-198" style="edgeStyle=orthogonalEdgeStyle;rounded=0;orthogonalLoop=1;jettySize=auto;html=1;exitX=0;exitY=0.5;exitDx=0;exitDy=0;entryX=0.5;entryY=1;entryDx=0;entryDy=0;" parent="1" source="GJdMn4VS1XzGOR77iFDF-196" target="GJdMn4VS1XzGOR77iFDF-5" edge="1">
          <mxGeometry relative="1" as="geometry" />
        </mxCell>
        <mxCell id="GJdMn4VS1XzGOR77iFDF-196" value="have" style="shape=rhombus;perimeter=rhombusPerimeter;whiteSpace=wrap;html=1;align=center;fillColor=#C3ABD0;" parent="1" vertex="1">
          <mxGeometry x="1550" y="340" width="120" height="60" as="geometry" />
        </mxCell>
        <mxCell id="GJdMn4VS1XzGOR77iFDF-199" value="M" style="text;html=1;align=center;verticalAlign=middle;resizable=0;points=[];autosize=1;strokeColor=none;fillColor=none;" parent="1" vertex="1">
          <mxGeometry x="1390" y="110" width="30" height="30" as="geometry" />
        </mxCell>
        <mxCell id="GJdMn4VS1XzGOR77iFDF-200" value="1" style="text;html=1;align=center;verticalAlign=middle;resizable=0;points=[];autosize=1;strokeColor=none;fillColor=none;" parent="1" vertex="1">
          <mxGeometry x="1995" y="418" width="30" height="30" as="geometry" />
        </mxCell>
        <mxCell id="GJdMn4VS1XzGOR77iFDF-202" value="conducts" style="shape=rhombus;perimeter=rhombusPerimeter;whiteSpace=wrap;html=1;align=center;fillColor=#C3ABD0;" parent="1" vertex="1">
          <mxGeometry x="1400" y="520" width="120" height="60" as="geometry" />
        </mxCell>
        <mxCell id="GJdMn4VS1XzGOR77iFDF-205" style="edgeStyle=orthogonalEdgeStyle;rounded=0;orthogonalLoop=1;jettySize=auto;html=1;exitX=0;exitY=0.5;exitDx=0;exitDy=0;entryX=0.836;entryY=-0.024;entryDx=0;entryDy=0;entryPerimeter=0;" parent="1" source="GJdMn4VS1XzGOR77iFDF-202" target="GJdMn4VS1XzGOR77iFDF-9" edge="1">
          <mxGeometry relative="1" as="geometry">
            <Array as="points">
              <mxPoint x="1120" y="550" />
              <mxPoint x="1120" y="940" />
              <mxPoint x="917" y="940" />
            </Array>
          </mxGeometry>
        </mxCell>
        <mxCell id="GJdMn4VS1XzGOR77iFDF-212" style="edgeStyle=orthogonalEdgeStyle;rounded=0;orthogonalLoop=1;jettySize=auto;html=1;exitX=0.5;exitY=1;exitDx=0;exitDy=0;entryX=0;entryY=0.5;entryDx=0;entryDy=0;" parent="1" source="GJdMn4VS1XzGOR77iFDF-211" target="GJdMn4VS1XzGOR77iFDF-7" edge="1">
          <mxGeometry relative="1" as="geometry" />
        </mxCell>
        <mxCell id="GJdMn4VS1XzGOR77iFDF-211" value="receives" style="shape=rhombus;perimeter=rhombusPerimeter;whiteSpace=wrap;html=1;align=center;fillColor=#C3ABD0;" parent="1" vertex="1">
          <mxGeometry x="1400" y="700" width="120" height="60" as="geometry" />
        </mxCell>
        <mxCell id="GJdMn4VS1XzGOR77iFDF-213" value="M" style="text;html=1;align=center;verticalAlign=middle;resizable=0;points=[];autosize=1;strokeColor=none;fillColor=none;" parent="1" vertex="1">
          <mxGeometry x="1510" y="910" width="30" height="30" as="geometry" />
        </mxCell>
        <mxCell id="GJdMn4VS1XzGOR77iFDF-216" style="edgeStyle=orthogonalEdgeStyle;rounded=0;orthogonalLoop=1;jettySize=auto;html=1;exitX=0;exitY=0.5;exitDx=0;exitDy=0;entryX=0.75;entryY=1;entryDx=0;entryDy=0;" parent="1" source="GJdMn4VS1XzGOR77iFDF-214" target="GJdMn4VS1XzGOR77iFDF-8" edge="1">
          <mxGeometry relative="1" as="geometry">
            <Array as="points">
              <mxPoint x="1120" y="280" />
              <mxPoint x="1120" y="520" />
              <mxPoint x="1002" y="520" />
            </Array>
          </mxGeometry>
        </mxCell>
        <mxCell id="GJdMn4VS1XzGOR77iFDF-214" value="generates" style="shape=rhombus;perimeter=rhombusPerimeter;whiteSpace=wrap;html=1;align=center;fillColor=#C3ABD0;" parent="1" vertex="1">
          <mxGeometry x="1150" y="250" width="120" height="60" as="geometry" />
        </mxCell>
        <mxCell id="GJdMn4VS1XzGOR77iFDF-217" value="1" style="text;html=1;align=center;verticalAlign=middle;resizable=0;points=[];autosize=1;strokeColor=none;fillColor=none;" parent="1" vertex="1">
          <mxGeometry x="1305" y="98" width="30" height="30" as="geometry" />
        </mxCell>
        <mxCell id="GJdMn4VS1XzGOR77iFDF-218" value="M" style="text;html=1;align=center;verticalAlign=middle;resizable=0;points=[];autosize=1;strokeColor=none;fillColor=none;" parent="1" vertex="1">
          <mxGeometry x="970" y="510" width="30" height="30" as="geometry" />
        </mxCell>
        <mxCell id="GJdMn4VS1XzGOR77iFDF-219" value="1" style="text;html=1;align=center;verticalAlign=middle;resizable=0;points=[];autosize=1;strokeColor=none;fillColor=none;" parent="1" vertex="1">
          <mxGeometry x="330" y="1020" width="30" height="30" as="geometry" />
        </mxCell>
        <mxCell id="GJdMn4VS1XzGOR77iFDF-222" style="edgeStyle=orthogonalEdgeStyle;rounded=0;orthogonalLoop=1;jettySize=auto;html=1;exitX=0;exitY=0.5;exitDx=0;exitDy=0;entryX=0.367;entryY=-0.133;entryDx=0;entryDy=0;entryPerimeter=0;" parent="1" source="GJdMn4VS1XzGOR77iFDF-220" target="GJdMn4VS1XzGOR77iFDF-223" edge="1">
          <mxGeometry relative="1" as="geometry">
            <mxPoint x="-570" y="710" as="targetPoint" />
            <Array as="points">
              <mxPoint x="10" y="990" />
              <mxPoint x="10" y="710" />
              <mxPoint x="216" y="710" />
            </Array>
          </mxGeometry>
        </mxCell>
        <mxCell id="GJdMn4VS1XzGOR77iFDF-220" value="has" style="shape=rhombus;perimeter=rhombusPerimeter;whiteSpace=wrap;html=1;align=center;fillColor=#C3ABD0;" parent="1" vertex="1">
          <mxGeometry x="70" y="960" width="120" height="60" as="geometry" />
        </mxCell>
        <mxCell id="GJdMn4VS1XzGOR77iFDF-224" value="1" style="text;html=1;align=center;verticalAlign=middle;resizable=0;points=[];autosize=1;strokeColor=none;fillColor=none;" parent="1" vertex="1">
          <mxGeometry x="260" y="1060" width="30" height="30" as="geometry" />
        </mxCell>
        <mxCell id="GJdMn4VS1XzGOR77iFDF-226" value="creates" style="shape=rhombus;perimeter=rhombusPerimeter;whiteSpace=wrap;html=1;align=center;fillColor=#C3ABD0;" parent="1" vertex="1">
          <mxGeometry x="530" y="895" width="120" height="60" as="geometry" />
        </mxCell>
        <mxCell id="GJdMn4VS1XzGOR77iFDF-228" style="edgeStyle=orthogonalEdgeStyle;rounded=0;orthogonalLoop=1;jettySize=auto;html=1;exitX=1;exitY=0.5;exitDx=0;exitDy=0;entryX=0.154;entryY=0.008;entryDx=0;entryDy=0;entryPerimeter=0;" parent="1" source="GJdMn4VS1XzGOR77iFDF-226" target="GJdMn4VS1XzGOR77iFDF-7" edge="1">
          <mxGeometry relative="1" as="geometry">
            <Array as="points">
              <mxPoint x="650" y="790" />
              <mxPoint x="1180" y="790" />
              <mxPoint x="1180" y="890" />
              <mxPoint x="1570" y="890" />
            </Array>
          </mxGeometry>
        </mxCell>
        <mxCell id="GJdMn4VS1XzGOR77iFDF-229" value="1" style="text;html=1;align=center;verticalAlign=middle;resizable=0;points=[];autosize=1;strokeColor=none;fillColor=none;" parent="1" vertex="1">
          <mxGeometry x="400" y="1040" width="30" height="30" as="geometry" />
        </mxCell>
        <mxCell id="GJdMn4VS1XzGOR77iFDF-233" style="edgeStyle=orthogonalEdgeStyle;rounded=0;orthogonalLoop=1;jettySize=auto;html=1;exitX=1;exitY=0.5;exitDx=0;exitDy=0;entryX=0.25;entryY=1;entryDx=0;entryDy=0;" parent="1" source="GJdMn4VS1XzGOR77iFDF-231" target="GJdMn4VS1XzGOR77iFDF-7" edge="1">
          <mxGeometry relative="1" as="geometry">
            <Array as="points">
              <mxPoint x="525" y="720" />
              <mxPoint x="1370" y="720" />
              <mxPoint x="1370" y="980" />
              <mxPoint x="1583" y="980" />
            </Array>
          </mxGeometry>
        </mxCell>
        <mxCell id="GJdMn4VS1XzGOR77iFDF-231" value="validates" style="shape=rhombus;perimeter=rhombusPerimeter;whiteSpace=wrap;html=1;align=center;fillColor=#C3ABD0;" parent="1" vertex="1">
          <mxGeometry x="405" y="610" width="120" height="60" as="geometry" />
        </mxCell>
        <mxCell id="GJdMn4VS1XzGOR77iFDF-123" style="edgeStyle=orthogonalEdgeStyle;rounded=0;orthogonalLoop=1;jettySize=auto;html=1;exitX=0.5;exitY=0;exitDx=0;exitDy=0;entryX=0.5;entryY=1;entryDx=0;entryDy=0;" parent="1" source="GJdMn4VS1XzGOR77iFDF-7" target="GJdMn4VS1XzGOR77iFDF-19" edge="1">
          <mxGeometry relative="1" as="geometry" />
        </mxCell>
        <mxCell id="GJdMn4VS1XzGOR77iFDF-124" style="edgeStyle=orthogonalEdgeStyle;rounded=0;orthogonalLoop=1;jettySize=auto;html=1;exitX=1;exitY=0;exitDx=0;exitDy=0;entryX=0;entryY=1;entryDx=0;entryDy=0;" parent="1" source="GJdMn4VS1XzGOR77iFDF-7" target="GJdMn4VS1XzGOR77iFDF-20" edge="1">
          <mxGeometry relative="1" as="geometry" />
        </mxCell>
        <mxCell id="GJdMn4VS1XzGOR77iFDF-125" style="edgeStyle=orthogonalEdgeStyle;rounded=0;orthogonalLoop=1;jettySize=auto;html=1;exitX=1;exitY=0.25;exitDx=0;exitDy=0;entryX=0;entryY=0.5;entryDx=0;entryDy=0;" parent="1" source="GJdMn4VS1XzGOR77iFDF-7" target="GJdMn4VS1XzGOR77iFDF-21" edge="1">
          <mxGeometry relative="1" as="geometry" />
        </mxCell>
        <mxCell id="GJdMn4VS1XzGOR77iFDF-126" style="edgeStyle=orthogonalEdgeStyle;rounded=0;orthogonalLoop=1;jettySize=auto;html=1;exitX=1;exitY=0.5;exitDx=0;exitDy=0;entryX=0;entryY=0.5;entryDx=0;entryDy=0;" parent="1" source="GJdMn4VS1XzGOR77iFDF-7" target="GJdMn4VS1XzGOR77iFDF-22" edge="1">
          <mxGeometry relative="1" as="geometry" />
        </mxCell>
        <mxCell id="GJdMn4VS1XzGOR77iFDF-127" style="edgeStyle=orthogonalEdgeStyle;rounded=0;orthogonalLoop=1;jettySize=auto;html=1;exitX=1;exitY=0.75;exitDx=0;exitDy=0;entryX=0;entryY=0.5;entryDx=0;entryDy=0;" parent="1" source="GJdMn4VS1XzGOR77iFDF-7" target="GJdMn4VS1XzGOR77iFDF-44" edge="1">
          <mxGeometry relative="1" as="geometry" />
        </mxCell>
        <mxCell id="GJdMn4VS1XzGOR77iFDF-128" value="" style="edgeStyle=orthogonalEdgeStyle;rounded=0;orthogonalLoop=1;jettySize=auto;html=1;" parent="1" source="GJdMn4VS1XzGOR77iFDF-7" target="GJdMn4VS1XzGOR77iFDF-46" edge="1">
          <mxGeometry relative="1" as="geometry" />
        </mxCell>
        <mxCell id="GJdMn4VS1XzGOR77iFDF-243" style="edgeStyle=orthogonalEdgeStyle;rounded=0;orthogonalLoop=1;jettySize=auto;html=1;exitX=0.75;exitY=1;exitDx=0;exitDy=0;entryX=0.5;entryY=0;entryDx=0;entryDy=0;" parent="1" source="GJdMn4VS1XzGOR77iFDF-7" target="GJdMn4VS1XzGOR77iFDF-242" edge="1">
          <mxGeometry relative="1" as="geometry" />
        </mxCell>
        <mxCell id="GJdMn4VS1XzGOR77iFDF-244" style="edgeStyle=orthogonalEdgeStyle;rounded=0;orthogonalLoop=1;jettySize=auto;html=1;exitX=1;exitY=1;exitDx=0;exitDy=0;entryX=0;entryY=0;entryDx=0;entryDy=0;" parent="1" source="GJdMn4VS1XzGOR77iFDF-7" target="GJdMn4VS1XzGOR77iFDF-241" edge="1">
          <mxGeometry relative="1" as="geometry" />
        </mxCell>
        <mxCell id="GJdMn4VS1XzGOR77iFDF-7" value="&lt;b&gt;PURCHASE_ORDER&lt;/b&gt;" style="whiteSpace=wrap;html=1;align=center;fillColor=#3399FF;" parent="1" vertex="1">
          <mxGeometry x="1550" y="910" width="130" height="50" as="geometry" />
        </mxCell>
        <mxCell id="GJdMn4VS1XzGOR77iFDF-19" value="order_id" style="ellipse;whiteSpace=wrap;html=1;align=center;fontStyle=4;" parent="1" vertex="1">
          <mxGeometry x="1595" y="810" width="100" height="40" as="geometry" />
        </mxCell>
        <mxCell id="GJdMn4VS1XzGOR77iFDF-20" value="item_details" style="ellipse;whiteSpace=wrap;html=1;align=center;" parent="1" vertex="1">
          <mxGeometry x="1720" y="810" width="100" height="40" as="geometry" />
        </mxCell>
        <mxCell id="GJdMn4VS1XzGOR77iFDF-21" value="budger_validation_status" style="ellipse;whiteSpace=wrap;html=1;align=center;" parent="1" vertex="1">
          <mxGeometry x="1810" y="850" width="150" height="50" as="geometry" />
        </mxCell>
        <mxCell id="GJdMn4VS1XzGOR77iFDF-22" value="quantity" style="ellipse;whiteSpace=wrap;html=1;align=center;" parent="1" vertex="1">
          <mxGeometry x="1835" y="930" width="100" height="40" as="geometry" />
        </mxCell>
        <mxCell id="GJdMn4VS1XzGOR77iFDF-44" value="order_date" style="ellipse;whiteSpace=wrap;html=1;align=center;" parent="1" vertex="1">
          <mxGeometry x="1800" y="1010" width="100" height="40" as="geometry" />
        </mxCell>
        <mxCell id="GJdMn4VS1XzGOR77iFDF-46" value="status" style="ellipse;whiteSpace=wrap;html=1;align=center;" parent="1" vertex="1">
          <mxGeometry x="1450" y="1080" width="100" height="40" as="geometry" />
        </mxCell>
        <mxCell id="GJdMn4VS1XzGOR77iFDF-230" value="M" style="text;html=1;align=center;verticalAlign=middle;resizable=0;points=[];autosize=1;strokeColor=none;fillColor=none;" parent="1" vertex="1">
          <mxGeometry x="1565" y="870" width="30" height="30" as="geometry" />
        </mxCell>
        <mxCell id="GJdMn4VS1XzGOR77iFDF-234" value="M" style="text;html=1;align=center;verticalAlign=middle;resizable=0;points=[];autosize=1;strokeColor=none;fillColor=none;" parent="1" vertex="1">
          <mxGeometry x="1550" y="960" width="30" height="30" as="geometry" />
        </mxCell>
        <mxCell id="GJdMn4VS1XzGOR77iFDF-5" value="&lt;b&gt;CONTRACT&lt;/b&gt;" style="whiteSpace=wrap;html=1;align=center;fillColor=#3399FF;" parent="1" vertex="1">
          <mxGeometry x="1340" y="60" width="100" height="40" as="geometry" />
        </mxCell>
        <mxCell id="GJdMn4VS1XzGOR77iFDF-34" value="remaining_amount" style="ellipse;whiteSpace=wrap;html=1;align=center;container=0;" parent="1" vertex="1">
          <mxGeometry x="305" y="130" width="120" height="50" as="geometry" />
        </mxCell>
        <mxCell id="GJdMn4VS1XzGOR77iFDF-161" value="1" style="text;html=1;align=center;verticalAlign=middle;resizable=0;points=[];autosize=1;strokeColor=none;fillColor=none;container=0;" parent="1" vertex="1">
          <mxGeometry x="245" y="350" width="30" height="30" as="geometry" />
        </mxCell>
        <mxCell id="GJdMn4VS1XzGOR77iFDF-240" value="" style="group" parent="1" vertex="1" connectable="0">
          <mxGeometry x="720" y="1050" width="420" height="190" as="geometry" />
        </mxCell>
        <mxCell id="GJdMn4VS1XzGOR77iFDF-113" style="edgeStyle=orthogonalEdgeStyle;rounded=0;orthogonalLoop=1;jettySize=auto;html=1;exitX=0.25;exitY=1;exitDx=0;exitDy=0;entryX=0.5;entryY=0;entryDx=0;entryDy=0;" parent="GJdMn4VS1XzGOR77iFDF-240" source="GJdMn4VS1XzGOR77iFDF-9" target="GJdMn4VS1XzGOR77iFDF-39" edge="1">
          <mxGeometry relative="1" as="geometry" />
        </mxCell>
        <mxCell id="GJdMn4VS1XzGOR77iFDF-114" style="edgeStyle=orthogonalEdgeStyle;rounded=0;orthogonalLoop=1;jettySize=auto;html=1;exitX=0.5;exitY=1;exitDx=0;exitDy=0;entryX=0;entryY=0;entryDx=0;entryDy=0;" parent="GJdMn4VS1XzGOR77iFDF-240" source="GJdMn4VS1XzGOR77iFDF-9" target="GJdMn4VS1XzGOR77iFDF-40" edge="1">
          <mxGeometry relative="1" as="geometry" />
        </mxCell>
        <mxCell id="GJdMn4VS1XzGOR77iFDF-115" value="" style="edgeStyle=orthogonalEdgeStyle;rounded=0;orthogonalLoop=1;jettySize=auto;html=1;" parent="GJdMn4VS1XzGOR77iFDF-240" source="GJdMn4VS1XzGOR77iFDF-9" target="GJdMn4VS1XzGOR77iFDF-42" edge="1">
          <mxGeometry relative="1" as="geometry" />
        </mxCell>
        <mxCell id="GJdMn4VS1XzGOR77iFDF-117" style="edgeStyle=orthogonalEdgeStyle;rounded=0;orthogonalLoop=1;jettySize=auto;html=1;exitX=1;exitY=0;exitDx=0;exitDy=0;entryX=0;entryY=0.5;entryDx=0;entryDy=0;" parent="GJdMn4VS1XzGOR77iFDF-240" source="GJdMn4VS1XzGOR77iFDF-9" target="GJdMn4VS1XzGOR77iFDF-41" edge="1">
          <mxGeometry relative="1" as="geometry" />
        </mxCell>
        <mxCell id="GJdMn4VS1XzGOR77iFDF-9" value="&lt;b&gt;PERFORMANCE_EVALUATION&lt;/b&gt;" style="whiteSpace=wrap;html=1;align=center;fillColor=#3399FF;" parent="GJdMn4VS1XzGOR77iFDF-240" vertex="1">
          <mxGeometry x="30" y="50" width="200" height="50" as="geometry" />
        </mxCell>
        <mxCell id="GJdMn4VS1XzGOR77iFDF-39" value="evaluation_id" style="ellipse;whiteSpace=wrap;html=1;align=center;fontStyle=4;" parent="GJdMn4VS1XzGOR77iFDF-240" vertex="1">
          <mxGeometry y="150" width="100" height="40" as="geometry" />
        </mxCell>
        <mxCell id="GJdMn4VS1XzGOR77iFDF-40" value="feedback" style="ellipse;whiteSpace=wrap;html=1;align=center;" parent="GJdMn4VS1XzGOR77iFDF-240" vertex="1">
          <mxGeometry x="130" y="150" width="100" height="40" as="geometry" />
        </mxCell>
        <mxCell id="GJdMn4VS1XzGOR77iFDF-41" value="rating" style="ellipse;whiteSpace=wrap;html=1;align=center;" parent="GJdMn4VS1XzGOR77iFDF-240" vertex="1">
          <mxGeometry x="320" y="10" width="100" height="40" as="geometry" />
        </mxCell>
        <mxCell id="GJdMn4VS1XzGOR77iFDF-42" value="evaluation_date" style="ellipse;whiteSpace=wrap;html=1;align=center;" parent="GJdMn4VS1XzGOR77iFDF-240" vertex="1">
          <mxGeometry x="270" y="110" width="100" height="40" as="geometry" />
        </mxCell>
        <mxCell id="GJdMn4VS1XzGOR77iFDF-185" value="M" style="text;html=1;align=center;verticalAlign=middle;resizable=0;points=[];autosize=1;strokeColor=none;fillColor=none;" parent="GJdMn4VS1XzGOR77iFDF-240" vertex="1">
          <mxGeometry x="145" y="8" width="30" height="30" as="geometry" />
        </mxCell>
        <mxCell id="GJdMn4VS1XzGOR77iFDF-206" value="M" style="text;html=1;align=center;verticalAlign=middle;resizable=0;points=[];autosize=1;strokeColor=none;fillColor=none;" parent="GJdMn4VS1XzGOR77iFDF-240" vertex="1">
          <mxGeometry x="200" width="30" height="30" as="geometry" />
        </mxCell>
        <mxCell id="GJdMn4VS1XzGOR77iFDF-241" value="TotalCost" style="ellipse;whiteSpace=wrap;html=1;align=center;" parent="1" vertex="1">
          <mxGeometry x="1710" y="1140" width="100" height="40" as="geometry" />
        </mxCell>
        <mxCell id="GJdMn4VS1XzGOR77iFDF-242" value="costperunit" style="ellipse;whiteSpace=wrap;html=1;align=center;" parent="1" vertex="1">
          <mxGeometry x="1550" y="1120" width="100" height="40" as="geometry" />
        </mxCell>
        <mxCell id="AYB0HB_WFvDDL02qgoz1-1" value="" style="group" parent="1" vertex="1" connectable="0">
          <mxGeometry x="15" y="15" width="275" height="260" as="geometry" />
        </mxCell>
        <mxCell id="GJdMn4VS1XzGOR77iFDF-118" style="edgeStyle=orthogonalEdgeStyle;rounded=0;orthogonalLoop=1;jettySize=auto;html=1;exitX=1;exitY=0.5;exitDx=0;exitDy=0;entryX=0.304;entryY=1.022;entryDx=0;entryDy=0;entryPerimeter=0;" parent="AYB0HB_WFvDDL02qgoz1-1" source="GJdMn4VS1XzGOR77iFDF-10" target="GJdMn4VS1XzGOR77iFDF-34" edge="1">
          <mxGeometry relative="1" as="geometry" />
        </mxCell>
        <mxCell id="GJdMn4VS1XzGOR77iFDF-119" style="edgeStyle=orthogonalEdgeStyle;rounded=0;orthogonalLoop=1;jettySize=auto;html=1;exitX=0.75;exitY=0;exitDx=0;exitDy=0;entryX=0.5;entryY=1;entryDx=0;entryDy=0;" parent="AYB0HB_WFvDDL02qgoz1-1" source="GJdMn4VS1XzGOR77iFDF-10" target="GJdMn4VS1XzGOR77iFDF-32" edge="1">
          <mxGeometry relative="1" as="geometry" />
        </mxCell>
        <mxCell id="GJdMn4VS1XzGOR77iFDF-120" style="edgeStyle=orthogonalEdgeStyle;rounded=0;orthogonalLoop=1;jettySize=auto;html=1;exitX=0.25;exitY=0;exitDx=0;exitDy=0;entryX=1;entryY=1;entryDx=0;entryDy=0;" parent="AYB0HB_WFvDDL02qgoz1-1" source="GJdMn4VS1XzGOR77iFDF-10" target="GJdMn4VS1XzGOR77iFDF-33" edge="1">
          <mxGeometry relative="1" as="geometry" />
        </mxCell>
        <mxCell id="GJdMn4VS1XzGOR77iFDF-121" style="edgeStyle=orthogonalEdgeStyle;rounded=0;orthogonalLoop=1;jettySize=auto;html=1;exitX=0;exitY=0.25;exitDx=0;exitDy=0;entryX=1;entryY=0.5;entryDx=0;entryDy=0;" parent="AYB0HB_WFvDDL02qgoz1-1" source="GJdMn4VS1XzGOR77iFDF-10" target="GJdMn4VS1XzGOR77iFDF-35" edge="1">
          <mxGeometry relative="1" as="geometry" />
        </mxCell>
        <mxCell id="GJdMn4VS1XzGOR77iFDF-122" style="edgeStyle=orthogonalEdgeStyle;rounded=0;orthogonalLoop=1;jettySize=auto;html=1;exitX=0;exitY=0.75;exitDx=0;exitDy=0;entryX=1;entryY=0.5;entryDx=0;entryDy=0;" parent="AYB0HB_WFvDDL02qgoz1-1" source="GJdMn4VS1XzGOR77iFDF-10" target="GJdMn4VS1XzGOR77iFDF-37" edge="1">
          <mxGeometry relative="1" as="geometry" />
        </mxCell>
        <mxCell id="GJdMn4VS1XzGOR77iFDF-10" value="&lt;b&gt;BUDGET&lt;/b&gt;" style="whiteSpace=wrap;html=1;align=center;fillColor=#3399FF;container=0;" parent="AYB0HB_WFvDDL02qgoz1-1" vertex="1">
          <mxGeometry x="145" y="190" width="100" height="40" as="geometry" />
        </mxCell>
        <mxCell id="GJdMn4VS1XzGOR77iFDF-32" value="budget_id" style="ellipse;whiteSpace=wrap;html=1;align=center;fontStyle=4;container=0;" parent="AYB0HB_WFvDDL02qgoz1-1" vertex="1">
          <mxGeometry x="175" y="80" width="100" height="40" as="geometry" />
        </mxCell>
        <mxCell id="GJdMn4VS1XzGOR77iFDF-33" value="allocated_amount" style="ellipse;whiteSpace=wrap;html=1;align=center;container=0;" parent="AYB0HB_WFvDDL02qgoz1-1" vertex="1">
          <mxGeometry x="85" width="100" height="40" as="geometry" />
        </mxCell>
        <mxCell id="GJdMn4VS1XzGOR77iFDF-35" value="spent_amount" style="ellipse;whiteSpace=wrap;html=1;align=center;container=0;" parent="AYB0HB_WFvDDL02qgoz1-1" vertex="1">
          <mxGeometry y="60" width="100" height="40" as="geometry" />
        </mxCell>
        <mxCell id="GJdMn4VS1XzGOR77iFDF-37" value="adjustment_history" style="ellipse;whiteSpace=wrap;html=1;align=center;container=0;" parent="AYB0HB_WFvDDL02qgoz1-1" vertex="1">
          <mxGeometry x="-45" y="165" width="130" height="50" as="geometry" />
        </mxCell>
        <mxCell id="GJdMn4VS1XzGOR77iFDF-223" value="1" style="text;html=1;align=center;verticalAlign=middle;resizable=0;points=[];autosize=1;strokeColor=none;fillColor=none;container=0;" parent="AYB0HB_WFvDDL02qgoz1-1" vertex="1">
          <mxGeometry x="185" y="230" width="30" height="30" as="geometry" />
        </mxCell>
      </root>
    </mxGraphModel>
  </diagram>
</mxfile>
